<svg width="873" height="216" viewBox="0 0 873 216" fill="none" xmlns="http://www.w3.org/2000/svg">
<g filter="url(#filter0_i)">
<path d="M0 0H216V216H0V0Z" fill="black"/>
</g>
<path d="M0 0H216V216H0V0Z" fill="#DD4B39"/>
<path fill-rule="evenodd" clip-rule="evenodd" d="M0.5 0.5H215.5V215.5H0.5V0.5Z" stroke="#D74837"/>
<path d="M128.128 197H103.702L91.666 174.108H75.618V197H54.024V114.282H91.194C113.142 114.282 125.65 124.902 125.65 143.31C125.65 155.818 120.458 165.022 110.9 169.978L128.128 197ZM75.618 131.51V156.88H91.312C100.044 156.88 105.118 152.396 105.118 144.018C105.118 135.876 100.044 131.51 91.312 131.51H75.618ZM139.456 114.282H204.71V131.51H161.05V146.968H200.462V164.078L161.05 164.196V179.772H205.89V197H139.456V114.282V114.282Z" fill="white"/>
<g filter="url(#filter1_i)">
<path d="M128.128 197H103.702L91.666 174.108H75.618V197H54.024V114.282H91.194C113.142 114.282 125.65 124.902 125.65 143.31C125.65 155.818 120.458 165.022 110.9 169.978L128.128 197ZM75.618 131.51V156.88H91.312C100.044 156.88 105.118 152.396 105.118 144.018C105.118 135.876 100.044 131.51 91.312 131.51H75.618ZM139.456 114.282H204.71V131.51H161.05V146.968H200.462V164.078L161.05 164.196V179.772H205.89V197H139.456V114.282V114.282Z" fill="white"/>
</g>
<path d="M265.068 201.464C252.868 201.464 243.352 198.089 236.52 191.338C229.769 184.587 226.394 174.949 226.394 162.424V114.6H246.158V161.692C246.158 176.983 252.502 184.628 265.19 184.628C271.371 184.628 276.089 182.798 279.342 179.138C282.595 175.397 284.222 169.581 284.222 161.692V114.6H303.742V162.424C303.742 174.949 300.326 184.587 293.494 191.338C286.743 198.089 277.268 201.464 265.068 201.464ZM401.596 114.6V200H385.37L342.792 148.15V200H323.272V114.6H339.62L382.076 166.45V114.6H401.596ZM421.802 114.6H441.566V200H421.802V114.6ZM543.462 114.6L506.496 200H486.976L450.132 114.6H471.482L497.468 175.6L523.82 114.6H543.462ZM616.717 184.14V200H550.593V114.6H615.131V130.46H570.235V149.004H609.885V164.376H570.235V184.14H616.717ZM686.854 200L670.384 176.21H669.408H652.206V200H632.442V114.6H669.408C676.972 114.6 683.52 115.861 689.05 118.382C694.662 120.903 698.973 124.482 701.982 129.118C704.992 133.754 706.496 139.244 706.496 145.588C706.496 151.932 704.951 157.422 701.86 162.058C698.851 166.613 694.54 170.11 688.928 172.55L708.082 200H686.854ZM686.488 145.588C686.488 140.789 684.943 137.129 681.852 134.608C678.762 132.005 674.248 130.704 668.31 130.704H652.206V160.472H668.31C674.248 160.472 678.762 159.171 681.852 156.568C684.943 153.965 686.488 150.305 686.488 145.588ZM750.215 201.464C743.465 201.464 736.917 200.569 730.573 198.78C724.311 196.909 719.268 194.51 715.445 191.582L722.155 176.698C725.815 179.382 730.167 181.537 735.209 183.164C740.252 184.791 745.295 185.604 750.337 185.604C755.949 185.604 760.097 184.791 762.781 183.164C765.465 181.456 766.807 179.219 766.807 176.454C766.807 174.421 765.994 172.753 764.367 171.452C762.822 170.069 760.789 168.971 758.267 168.158C755.827 167.345 752.493 166.45 748.263 165.474C741.757 163.929 736.429 162.383 732.281 160.838C728.133 159.293 724.555 156.812 721.545 153.396C718.617 149.98 717.153 145.425 717.153 139.732C717.153 134.771 718.495 130.297 721.179 126.312C723.863 122.245 727.889 119.033 733.257 116.674C738.707 114.315 745.335 113.136 753.143 113.136C758.593 113.136 763.92 113.787 769.125 115.088C774.331 116.389 778.885 118.26 782.789 120.7L776.689 135.706C768.8 131.233 760.911 128.996 753.021 128.996C747.491 128.996 743.383 129.891 740.699 131.68C738.097 133.469 736.795 135.828 736.795 138.756C736.795 141.684 738.3 143.88 741.309 145.344C744.4 146.727 749.077 148.109 755.339 149.492C761.846 151.037 767.173 152.583 771.321 154.128C775.469 155.673 779.007 158.113 781.935 161.448C784.945 164.783 786.449 169.297 786.449 174.99C786.449 179.87 785.067 184.343 782.301 188.41C779.617 192.395 775.551 195.567 770.101 197.926C764.652 200.285 758.023 201.464 750.215 201.464ZM866.078 184.14V200H799.954V114.6H864.492V130.46H819.596V149.004H859.246V164.376H819.596V184.14H866.078Z" fill="white"/>
<defs>
<filter id="filter0_i" x="0" y="0" width="216" height="218" filterUnits="userSpaceOnUse" color-interpolation-filters="sRGB">
<feFlood flood-opacity="0" result="BackgroundImageFix"/>
<feBlend mode="normal" in="SourceGraphic" in2="BackgroundImageFix" result="shape"/>
<feColorMatrix in="SourceAlpha" type="matrix" values="0 0 0 0 0 0 0 0 0 0 0 0 0 0 0 0 0 0 127 0" result="hardAlpha"/>
<feOffset dy="2"/>
<feGaussianBlur stdDeviation="2"/>
<feComposite in2="hardAlpha" operator="arithmetic" k2="-1" k3="1"/>
<feColorMatrix type="matrix" values="0 0 0 0 0 0 0 0 0 0 0 0 0 0 0 0 0 0 0.02 0"/>
<feBlend mode="normal" in2="shape" result="effect1_innerShadow"/>
</filter>
<filter id="filter1_i" x="54.024" y="114.282" width="151.866" height="84.718" filterUnits="userSpaceOnUse" color-interpolation-filters="sRGB">
<feFlood flood-opacity="0" result="BackgroundImageFix"/>
<feBlend mode="normal" in="SourceGraphic" in2="BackgroundImageFix" result="shape"/>
<feColorMatrix in="SourceAlpha" type="matrix" values="0 0 0 0 0 0 0 0 0 0 0 0 0 0 0 0 0 0 127 0" result="hardAlpha"/>
<feOffset dy="2"/>
<feGaussianBlur stdDeviation="2"/>
<feComposite in2="hardAlpha" operator="arithmetic" k2="-1" k3="1"/>
<feColorMatrix type="matrix" values="0 0 0 0 0 0 0 0 0 0 0 0 0 0 0 0 0 0 0.02 0"/>
<feBlend mode="normal" in2="shape" result="effect1_innerShadow"/>
</filter>
</defs>
</svg>
